/* XPM */
static const char *gohome[]={
"16 16 153 2",
"Qt c None",
".h c #797979",
"au c #000000",
".a c #0f9ae2",
"#M c #000000",
".u c #0f95e2",
".B c #0f90e2",
".p c #757575",
"#y c #000000",
".g c #727272",
"av c #000000",
".k c #0d64c6",
"at c #000000",
"#0 c #000000",
"#L c #000000",
"#j c #000000",
".o c #626262",
".f c #5d5d5d",
"#x c #000000",
"aw c #000000",
".6 c #000000",
"as c #000000",
"#i c #000000",
"#Z c #000000",
"#K c #000000",
"#w c #000000",
"#h c #000000",
"ak c #006600",
"ai c #007400",
"ap c #008700",
"aq c #008c00",
"ar c #009d00",
"aa c #00b200",
"ab c #00ff00",
"ah c #04f704",
"aj c #216b21",
"a# c #264c26",
".S c #2d4968",
"#Y c #2e522e",
"#J c #375937",
".d c #3c5571",
"#v c #3e5f3e",
"al c #476847",
"a. c #486948",
"#g c #4a6b4a",
".i c #4b627c",
".5 c #4b637e",
"#X c #4e6e4e",
".e c #516882",
"#I c #527252",
"#9 c #537353",
"ao c #559655",
"#W c #567556",
".4 c #576d88",
"#u c #577757",
".R c #5b728c",
"#f c #5e7e5e",
".H c #62768d",
".3 c #64778f",
"ac c #658265",
".2 c #667b92",
"#4 c #668566",
"#V c #688468",
"#8 c #6a866a",
".# c #6c7e95",
"#Q c #6c8b6c",
"#e c #6d8c6d",
".1 c #6f8094",
"#d c #758f75",
"ag c #778f77",
"#n c #789178",
".A c #798b9c",
"#1 c #799279",
".Q c #7f8fa0",
"#N c #809980",
"#U c #829982",
".0 c #83909d",
"#z c #859e85",
"#r c #869537",
"#c c #879e87",
"#F c #879f32",
"#k c #8aa38a",
".P c #8c9ba9",
"am c #8d8d8d",
"af c #8da28d",
".7 c #91aa91",
".b c #92a0ad",
".t c #939fac",
"#. c #93a293",
"#7 c #95ab95",
"ad c #969696",
".O c #96a1ad",
"an c #98aa98",
".Z c #99a1ac",
"#T c #9cb19c",
"## c #9fad9f",
"#E c #a0b4a0",
"#q c #a4b5a4",
".Y c #a6afb7",
".G c #a6afb8",
"#b c #a7b8a7",
"#s c #a8b031",
".n c #a8b3bf",
"#5 c #afafaf",
".X c #b0b8bf",
".z c #b1bac3",
".U c #b5bcc5",
".N c #b6bec6",
"#a c #b6c3b6",
"ae c #bbc8bb",
".W c #bdc3cb",
".F c #c1c9d1",
"#2 c #c2d1c2",
"#t c #c4c42b",
"#G c #c5d015",
".V c #c6ccd4",
"#O c #c7d5c7",
"#R c #cacaca",
".y c #cad0d8",
"#A c #cad9ca",
"#3 c #cbd6cb",
"#P c #cdd9cd",
".j c #ced7df",
"#l c #ceddce",
"#6 c #cfd9cf",
"#B c #d0dcd0",
".M c #d1d6dc",
".8 c #d1dfd1",
"#m c #d3dfd3",
".9 c #d4e1d4",
"#S c #d6ded6",
".s c #d7dde3",
"#D c #d8e0d8",
"#p c #d9e1d9",
".E c #dbe0e5",
".T c #dde3eb",
"#C c #e1e1e1",
".x c #e3e6ea",
".L c #e6e9ec",
".I c #e7ebef",
".r c #ebeef1",
".c c #ebf2f8",
".D c #eef0f2",
".C c #f1f3f5",
".m c #f1f3f6",
".J c #f2f4f6",
".w c #f3f5f7",
"#o c #f7f9f7",
".q c #f9fafb",
".K c #fafafb",
".v c #fbfcfc",
"#H c #ffff00",
".l c #ffffff",
"QtQtQtQtQtQtQt.#.#QtQtQtQtQtQtQt",
"QtQtQt.a.a.a.b.c.d.e.f.g.hQtQtQt",
"QtQt.i.j.k.b.l.m.n.d.e.o.p.hQtQt",
"Qt.a.i.j.b.l.q.r.s.t.d.e.o.p.hQt",
"Qt.u.i.b.l.v.w.x.y.z.A.d.e.o.p.h",
"Qt.B.b.l.C.l.D.E.F.G.t.H.d.e.o.p",
"Qt.b.l.I.J.K.L.M.N.O.P.Q.R.S.e.o",
".b.T.U.V.W.X.Y.Z.0.1.2.3.4.5.d.e",
"Qt.6.7.8.9#.###a#b#c#d#e#f#g#h#i",
"Qt#j#k#l#m#n#o#p#q#r#s#t#u#v#w#x",
"Qt#y#z#A#B#n#C#D#E#F#G#H#I#J#K#L",
"Qt#M#N#O#P#Q#R#S#T#U#V#W#X#Y#Z#0",
"Qt#M#1#2#3#4#5#6#7#U#8#9a.a##Z#0",
"Qt#M#naaabacadaeafagahaiaaaj#Z#0",
"Qt#Maaakakalamanaoaaapaqaraaasat",
"Qtauavawas#Z#Z#Z#Z#Z#Z#Z#Zasawav"};
